<svg id="Layer_1" data-name="Layer 1" xmlns="http://www.w3.org/2000/svg" viewBox="0 0 107.38 20.26"><defs><style>.cls-1{fill:#1b904e;}.cls-2{fill:#fff;}</style></defs><title>200labwebsite</title><path class="cls-1" d="M24.46,13.89a.78.78,0,0,1-.78.78H18.42a.78.78,0,0,1-.78-.78.75.75,0,0,1,.17-.49c2.35-3.46,4.76-4,4.76-5.7s-2.34-2-3.16-.62a.82.82,0,0,1-.68.37.85.85,0,0,1-.85-.85.84.84,0,0,1,.18-.52c1.71-2.42,6.24-1.62,6.25,1.62,0,2.05-2.33,3.35-4.19,5.41h3.56A.78.78,0,0,1,24.46,13.89Z"/><path class="cls-1" d="M26.17,9.72c0-3,1.9-5,4.3-5s4.3,2,4.3,5-1.9,5-4.3,5S26.17,12.73,26.17,9.72Zm6.86,0c0-2.08-1.09-3.48-2.56-3.48s-2.56,1.4-2.56,3.48S29,13.2,30.47,13.2,33,11.8,33,9.72Z"/><path class="cls-1" d="M36.48,9.72c0-3,1.89-5,4.29-5s4.3,2,4.3,5-1.89,5-4.3,5S36.48,12.73,36.48,9.72Zm6.85,0c0-2.08-1.08-3.48-2.56-3.48s-2.56,1.4-2.56,3.48,1.09,3.48,2.56,3.48S43.33,11.8,43.33,9.72Z"/><path class="cls-2" d="M52.89,13.86a.81.81,0,0,1-.81.81h-4.2a.89.89,0,0,1-.89-.89V5.41a.89.89,0,0,1,1.77,0v7.64h3.32A.81.81,0,0,1,52.89,13.86Z"/><path class="cls-2" d="M60.28,7.41a.85.85,0,0,1,.85.85v5.55a.86.86,0,1,1-1.71,0v0a3.14,3.14,0,0,1-2.27,1A3.45,3.45,0,0,1,53.86,11a3.45,3.45,0,0,1,3.29-3.72,3.1,3.1,0,0,1,2.27,1v0a.85.85,0,0,1,.86-.85ZM59.47,11a1.94,1.94,0,1,0-3.86,0,1.94,1.94,0,1,0,3.86,0Z"/><path class="cls-2" d="M70.32,11A3.46,3.46,0,0,1,67,14.76a3.11,3.11,0,0,1-2.26-1v0a.86.86,0,0,1-1.72,0V4.94a.86.86,0,1,1,1.72,0V8.29a3.08,3.08,0,0,1,2.26-1A3.45,3.45,0,0,1,70.32,11Zm-1.75,0a1.95,1.95,0,1,0-3.87,0,1.95,1.95,0,1,0,3.87,0Z"/><rect class="cls-1" x="73.4" y="6.83" width="17.2" height="7.88" rx="1.78"/><path class="cls-2" d="M78.39,11.39a1.4,1.4,0,0,1-1.45,1.36H75.47a.4.4,0,0,1-.4-.41V8.5a.4.4,0,0,1,.4-.4h1.28a1.32,1.32,0,0,1,1.37,1.28,1.16,1.16,0,0,1-.46.92A1.16,1.16,0,0,1,78.39,11.39ZM75.88,8.84V10h.87a.55.55,0,0,0,.55-.57.52.52,0,0,0-.53-.56Zm1.7,2.52a.63.63,0,0,0-.64-.65H75.88V12h1.06A.63.63,0,0,0,77.58,11.36Z"/><path class="cls-2" d="M79.43,12.36V8.29a.4.4,0,1,1,.79,0v4.07a.4.4,0,0,1-.79,0Z"/><path class="cls-2" d="M81.32,11.08A1.69,1.69,0,1,1,83,12.79,1.66,1.66,0,0,1,81.32,11.08Zm2.57,0a.89.89,0,1,0-1.77,0,.89.89,0,1,0,1.77,0Z"/><path class="cls-2" d="M89,9.81v2.54a1.6,1.6,0,0,1-.31,1.11,1.66,1.66,0,0,1-1.28.61A2.6,2.6,0,0,1,86,13.75a.35.35,0,0,1,.17-.66.34.34,0,0,1,.17.05,1.79,1.79,0,0,0,1.07.22,1,1,0,0,0,.68-.34,1,1,0,0,0,.15-.68,1.41,1.41,0,0,1-1,.45,1.58,1.58,0,0,1-1.51-1.71,1.58,1.58,0,0,1,1.51-1.7,1.44,1.44,0,0,1,1,.44h0a.39.39,0,1,1,.78,0Zm-.76,1.27a.89.89,0,1,0-1.77,0,.89.89,0,1,0,1.77,0Z"/></svg>